<svg xmlns="http://www.w3.org/2000/svg" width="702.965" height="351.78" viewBox="0 0 702.965 351.78"><path data-name="top/strength-line.svg" d="M-.008 345c-.506-10.46 7.713-15.86 15.113-21.23a143.321 143.321 0 0020.32-16.06c51.013-45.68 106.072-86.93 165.225-121.41 7.4-4.26 14.8-8.54 22.32-12.59 14.66-8.01 33-18.99 50.155-11.26 18.12 7.66 20.23 30.33 18.09 47.22a136.137 136.137 0 01-5.79 25.44l-4-2.9c10.12-7.26 18.85-16.52 28.73-24.06 14.23-9.45 30.23-18.4 44.22-28.12 83.66-53.94 170.33-104.15 260.67-146.14 7.57-3.52 33.15-14.87 41.03-18.41 8.94-4.47 17.32-10.53 26.86-13.75 4.67-1.79 9.66-2.77 15.95-.08 10.6 5.83-2.1 18.35-8.62 19.68-14.01 4.97-29.11 6.67-42.83 12.69-13.99 5.25-41.55 16.17-55.31 21.91-91.38 38.5-179.82 85.86-258.9 146.03-7.03 5.24-15.89 14.22-23.73 18.01-8.58 5.07-16.88 10.57-24.95 16.36a2.592 2.592 0 01-4-2.89c6.41-20.18 13.88-54.9-9.44-66.39-15.5-6.83-31.762 4.12-45.373 11.63-7.408 4.15-14.685 8.52-21.967 12.88A863.6 863.6 0 0080.783 281.7c-20.329 18.6-41.6 36.64-56.974 59.71-3.752 5.98-8.969 10.31-16.644 10.37A6.872 6.872 0 01-.008 345z" fill="#cfcfcf" fill-rule="evenodd" opacity=".49"/></svg>